<svg xmlns="http://www.w3.org/2000/svg" width="61" height="61"><g data-name="Group 1401"><g data-name="Component 1 – 1"><path data-name="Path 4248" d="M30.5.5a30 30 0 1030 30 30.034 30.034 0 00-30-30zm0 58a28 28 0 1128-28 28.032 28.032 0 01-28 28z" fill="#fa0" stroke="#fa0"/></g><path data-name="Path 4249" d="M31.5 26.521V16.379a1 1 0 10-2 0v10.142a4 4 0 00-2.858 2.858H19.5a1 1 0 000 2h7.142a3.992 3.992 0 104.858-4.858zm-1 5.858a2 2 0 112-2 2 2 0 01-2 2z" fill="#fa0" stroke="#fa0"/><path data-name="Path 4250" d="M30.5 10.379a1 1 0 001-1v-1a1 1 0 00-2 0v1a1 1 0 001 1z" fill="#fa0" stroke="#fa0"/><path data-name="Path 4251" d="M30.5 50.379a1 1 0 00-1 1v1a1 1 0 002 0v-1a1 1 0 00-1-1z" fill="#fa0" stroke="#fa0"/><path data-name="Path 4252" d="M52.5 29.379h-1a1 1 0 000 2h1a1 1 0 000-2z" fill="#fa0" stroke="#fa0"/><path data-name="Path 4253" d="M9.5 29.379h-1a1 1 0 100 2h1a1 1 0 000-2z" fill="#fa0" stroke="#fa0"/><path data-name="Path 4254" d="M45.349 14.115l-.707.707a1 1 0 101.414 1.414l.707-.707a1 1 0 10-1.414-1.414z" fill="#fa0" stroke="#fa0"/><path data-name="Path 4255" d="M14.944 44.521l-.707.707a1 1 0 101.414 1.414l.707-.707a1 1 0 00-1.414-1.414z" fill="#fa0" stroke="#fa0"/><path data-name="Path 4256" d="M46.056 44.521a1 1 0 00-1.414 1.414l.707.707a1 1 0 001.414-1.414z" fill="#fa0" stroke="#fa0"/><path data-name="Path 4257" d="M15.651 14.115a1 1 0 10-1.414 1.414l.707.707a1 1 0 101.414-1.414z" fill="#fa0" stroke="#fa0"/></g></svg>