<svg xmlns="http://www.w3.org/2000/svg" width="66.237" height="73.802"><path data-name="Path 4276" d="M56.908 50.757l8.423-2.456a1.257 1.257 0 00.864-1.529l-.05-.217a10.975 10.975 0 00-.1-.427 26.867 26.867 0 00-12.958-16.143 1.257 1.257 0 00-1.708.5l-10.366 18.9-.338.617-9.22-4.078V43.98a18.821 18.821 0 008.7-11.063 4.217 4.217 0 002.366-.677 4.467 4.467 0 002.112-3.171 4.388 4.388 0 00-3.111-4.765V11.457a8.469 8.469 0 00-7.094-8.431A34.1 34.1 0 0125.943.41a4.774 4.774 0 00-4.069.1A26.9 26.9 0 0114.6 3.032a8.587 8.587 0 00-7.053 8.422v12.847a4.39 4.39 0 00-3.142 4.375 4.47 4.47 0 002.043 3.476 3.962 3.962 0 002.405.767 18.771 18.771 0 008.764 11.291c0 .011-.006.019-.006.031v1.685l-9.313 4.119-.508.225A13.06 13.06 0 00.002 62.197v10.347a1.258 1.258 0 001.258 1.258h62.9a1.258 1.258 0 001.258-1.258v-15.1a1.258 1.258 0 00-1.258-1.258H47.587a13.008 13.008 0 00-1.517-2.273zm-24.2 5.433a1.258 1.258 0 00-1.258 1.258v13.837H10.064V52.01l7.548-3.338v3.112a6.919 6.919 0 0013.837 0v-3.108l4.972 2.2 2.575 1.134v1.038l-.451.822a1.258 1.258 0 00.122 1.393 1.234 1.234 0 00.329.26v.665zm30.191 10.064H33.965v-2.516h28.933zm-20.212-14.7a4.977 4.977 0 001.235.156 5.037 5.037 0 001.413-.2l-3.121.91zm3.387-6.174a2.483 2.483 0 01-2.085 3.8zm9.175 2.853a1.258 1.258 0 01.253-2.311 1.278 1.278 0 01.354-.051 1.261 1.261 0 011.206.907 1.257 1.257 0 01-.854 1.559 1.251 1.251 0 01-.961-.1zm8.2-2.005l-3.835 1.118a3.774 3.774 0 10-6.807 1.984l-7.471 2.18a5.038 5.038 0 003.421-6.238 4.985 4.985 0 00-1.393-2.243l1.253-2.284a4.965 4.965 0 002.854.905 5.019 5.019 0 004.856-6.329 24.336 24.336 0 017.115 10.911zm-11.255-12a2.466 2.466 0 011.7 1.678 2.519 2.519 0 01-1.711 3.12 2.469 2.469 0 01-2.33-.534zm-42.13-11.551v-4.706c9.788-4.8 19.268-4.8 28.933 0v4.826a38.106 38.106 0 00-15.061-3.326 31.725 31.725 0 00-13.871 3.206zm27.259 2.146c-6.443 2.586-12.8-.519-16.152-2.727a33.487 33.487 0 0116.151 2.727zM15.057 5.5a29.4 29.4 0 007.957-2.754 2.232 2.232 0 011.9-.042 36.538 36.538 0 009.1 2.8 5.963 5.963 0 014.981 5.948v3.728a33.438 33.438 0 00-28.933.01v-3.742A6.07 6.07 0 0115.057 5.5zm-4.021 25.731a1.258 1.258 0 00-1.633-.94 1.563 1.563 0 01-1.547-.225 1.988 1.988 0 01-.936-1.48 1.887 1.887 0 011.886-1.958 1.24 1.24 0 001.267-1.126 30.9 30.9 0 017.605-2.844c3.886 3.152 9.1 5.665 14.5 5.665a16.22 16.22 0 007.508-1.813 1.328 1.328 0 00.568.123 1.887 1.887 0 011.872 2.133 1.936 1.936 0 01-.945 1.342 1.621 1.621 0 01-1.55.181 1.257 1.257 0 00-1.647.918 16.287 16.287 0 01-10.848 11.985l-.559.181a7.581 7.581 0 01-4.617.057 16.261 16.261 0 01-10.924-12.199zm10.153 14.595a9.608 9.608 0 002.949.459 10.436 10.436 0 003.214-.518l.559-.181c.351-.114.681-.27 1.022-.4v6.605a4.403 4.403 0 01-8.806 0V45.41c.354.137.696.3 1.062.416zM2.516 62.197a10.527 10.527 0 015.032-8.957v18.046H2.516zm60.382 9.09H33.965V68.77h28.933zm0-10.064H33.965V58.71h28.933zm-18.276-5.032h-3.11v-.945l1.857-.542a10.5 10.5 0 011.252 1.487z" fill="#a80e0e"/></svg>