<svg data-name="Component 4 – 1" xmlns="http://www.w3.org/2000/svg" width="57" height="54"><g data-name="Rectangle 273" fill="#fff" stroke="#707070"><rect width="57" height="54" rx="5" stroke="none"/><rect x=".5" y=".5" width="56" height="53" rx="4.5" fill="none"/></g><g data-name="Group 1356"><g data-name="Group 1355"><g data-name="Group 1352"><path data-name="Path 4264" d="M32.845 38.25h-9.333A7.522 7.522 0 0116 30.737v-8.224a7.52 7.52 0 017.512-7.512h9.333a7.52 7.52 0 017.513 7.512v8.224a7.522 7.522 0 01-7.513 7.513zm-9.334-21.58a5.849 5.849 0 00-5.842 5.842v8.224a5.849 5.849 0 005.842 5.844h9.334a5.85 5.85 0 005.844-5.844v-8.224a5.849 5.849 0 00-5.844-5.842z" fill="#a80e0e"/></g><g data-name="Group 1353"><path data-name="Path 4265" d="M28.18 33.311a6.687 6.687 0 116.687-6.687 6.694 6.694 0 01-6.687 6.687zm0-11.706a5.018 5.018 0 105.017 5.019 5.024 5.024 0 00-5.017-5.018z" fill="#a80e0e"/></g><g data-name="Group 1354"><path data-name="Path 4266" d="M36.152 20.144a1.387 1.387 0 11-1.387-1.389 1.386 1.386 0 011.387 1.389z" fill="#a80e0e"/></g></g></g></svg>