<svg xmlns="http://www.w3.org/2000/svg" width="99.601" height="84.076"><g data-name="Group 1346" fill="#a80e0e"><path data-name="Path 4246" d="M.059 48.892c.623-7.231-1.1-16.091 1.107-24.814 3.8-15.02 15.655-23.3 30.96-24.06 4.214-.209 6.55 1.283 6.679 5.918.244 8.709.161 9.068-5.747 9.58-11.066.958-15.514 4.95-16.818 15.092-.638 4.969 1.483 7.749 6.483 8.045 3.668.217 7.359.029 11.041.061 7.943.07 12.67 4.755 12.719 12.662.043 6.81.062 13.621-.005 20.429-.073 7.451-4.961 12.182-12.586 12.23q-10.492.065-20.982 0C5.064 84 .26 79.359.092 71.414-.059 64.423.059 57.429.059 48.892z"/><path data-name="Path 4247" d="M53.122 49c.638-7.209-1.071-16.06 1.083-24.795C58.005 8.817 70.372.558 85.612.016c4.475-.158 6.592 1.963 6.166 6.341-.375 3.86 2.27 9.086-5.524 9.314-11.139.325-15.557 4.7-16.911 14.816-.7 5.248 1.477 7.95 6.863 8.187 3.675.161 7.361 0 11.041.045 7.285.1 12.2 4.838 12.286 11.977q.129 10.765 0 21.534a11.6 11.6 0 01-11.9 11.8c-7.177.086-14.356.041-21.534.013-7.949-.03-12.756-4.563-12.944-12.494-.164-6.994-.033-13.991-.033-22.549z"/></g></svg>