<svg data-name="Component 3 – 1" xmlns="http://www.w3.org/2000/svg" width="57" height="54"><g data-name="Rectangle 272" fill="#fff" stroke="#707070"><rect width="57" height="54" rx="5" stroke="none"/><rect x=".5" y=".5" width="56" height="53" rx="4.5" fill="none"/></g><g data-name="Group 1350"><g data-name="Group 1349" fill="#a80e0e"><path data-name="Path 4261" d="M40.571 18.293a3.828 3.828 0 01-1.112.145l.02-.118a9.145 9.145 0 002.234-2.551c.083-.29-.015-.388-.017-.4l-1.866.793-1.559.7a6.227 6.227 0 00-4.535-1.869c-3.246 0-5.876 2.3-5.876 5.137a7.546 7.546 0 00.241 1.937c0 .15 0-.15 0 0a18.272 18.272 0 01-7.155-2.124c-4.707-2.384-5-4.034-5-4.034-.739.786-1.12 3.383-.371 5.421a6.75 6.75 0 002.129 2.475 4.945 4.945 0 01-1.51-.248 3.352 3.352 0 01-1.066-.518c-.459 1.12.464 3.118 2.055 4.555a8.472 8.472 0 002.625 1.36l-2.649.074c-.15 2.576 5.4 4.105 5.4 4.105a9.075 9.075 0 01-5.534 2.011 10.528 10.528 0 01-3.023-.444 14.4 14.4 0 009.838 3.526c9.9-.521 15.5-9.036 15.761-17.4l.015.017a7.036 7.036 0 001.456-1.225 10.223 10.223 0 001.608-2.153s-1.485.656-2.109.828z"/><path data-name="Path 4262" d="M41.698 15.371c0 .16 0 .017 0 0z"/></g></g></svg>